PathFileType	4	(X/Y/Z)	s05c0301.trc
DataRate	CameraRate	NumFrames	NumMarkers	Units	OrigDataRate	OrigDataStartFrame	OrigNumFrames
200	200	5	50	mm	200	1000	2000
Frame#	Time	racr			lacr			c7			jug			rlel			rdr			llel			ldr			s2			lic			ric			lasi			rasi			rpsi			lpsi			rgt			lgt			rth1			rth2			rth3			rth4			rlfc			rmfc			rsh1			rsh2			rsh3			rsh4			rlmal			rmmal			rcal			rtoe			rmt5			lth1			lth2			lth4			lth3			llfc			lmfc			lsh1			lsh2			lsh3			lsh4			llmal			lmmal			lcal			ltoe			lmt5			SBIKE			LBIKE			RBIKE			
		X1	Y1	Z1	X2	Y2	Z2	X3	Y3	Z3	X4	Y4	Z4	X5	Y5	Z5	X6	Y6	Z6	X7	Y7	Z7	X8	Y8	Z8	X9	Y9	Z9	X10	Y10	Z10	X11	Y11	Z11	X12	Y12	Z12	X13	Y13	Z13	X14	Y14	Z14	X15	Y15	Z15	X16	Y16	Z16	X17	Y17	Z17	X18	Y18	Z18	X19	Y19	Z19	X20	Y20	Z20	X21	Y21	Z21	X22	Y22	Z22	X23	Y23	Z23	X24	Y24	Z24	X25	Y25	Z25	X26	Y26	Z26	X27	Y27	Z27	X28	Y28	Z28	X29	Y29	Z29	X30	Y30	Z30	X31	Y31	Z31	X32	Y32	Z32	X33	Y33	Z33	X34	Y34	Z34	X35	Y35	Z35	X36	Y36	Z36	X37	Y37	Z37	X38	Y38	Z38	X39	Y39	Z39	X40	Y40	Z40	X41	Y41	Z41	X42	Y42	Z42	X43	Y43	Z43	X44	Y44	Z44	X45	Y45	Z45	X46	Y46	Z46	X47	Y47	Z47	X48	Y48	Z48	X49	Y49	Z49	X50	Y50	Z50	
1000	5.0000	771.304677	1272.573505	-206.223035	739.775104	1304.505674	-487.273208	745.856124	1363.151306	-351.924097	687.560618	1209.638855	-347.783852	593.590803	1122.150182	-25.782609	696.505696	926.626541	-99.378947	525.632114	1099.702103	-583.283739	681.170776	917.715256	-490.258947	162.990975	1227.477094	-277.725963	291.442298	1239.857954	-430.884762	328.883948	1202.396102	-151.557134	330.978601	1174.281713	-405.242557	349.029559	1136.854360	-188.779326	211.989839	1261.417640	-231.652957	203.434549	1277.008753	-317.688974	233.861611	1078.194960	-137.413094	226.984172	1150.589956	-466.695607	253.636525	969.942248	-118.002349	282.667070	885.436805	-110.809462	264.581734	799.125643	-114.542003	318.937624	887.852536	-119.860274	289.391989	651.784887	-137.927601	269.572087	644.646706	-243.178616	230.198313	564.183463	-103.521084	225.200193	476.079107	-111.731553	181.034420	402.823700	-112.196666	254.673305	469.166073	-136.563833	149.823452	270.308144	-116.773909	166.935676	290.797534	-196.042158	75.587153	261.966262	-158.905786	344.709766	133.754032	-159.548327	243.686879	150.904187	-91.774847	332.856258	1058.449214	-489.048543	414.420263	1032.469809	-485.196271	434.247101	1059.160130	-465.428374	474.886144	964.824005	-488.706416	571.483194	855.313929	-460.910251	558.196974	842.090306	-349.511857	467.875857	799.807783	-479.997084	405.382469	740.386673	-467.121384	319.396378	718.500816	-466.329195	422.483978	713.335980	-446.172247	215.088450	645.512891	-457.385729	250.356567	648.828803	-381.106708	149.772719	676.149851	-418.565164	277.818593	411.960880	-390.218415	207.135417	487.449940	-464.512582	-219.422011	911.449932	-273.885804	-53.305845	79.494962	-475.032032	-53.341597	79.159488	-77.443322	
1001	5.0050	771.079490	1272.925351	-208.648945	738.787653	1304.219076	-489.297225	745.189987	1363.218394	-354.072064	686.378054	1210.131931	-349.865979	594.180506	1122.795445	-26.638206	696.850665	926.302925	-99.605778	524.584042	1098.883990	-583.814619	680.831873	917.737853	-490.769219	163.381361	1228.531856	-274.012446	289.649179	1241.931408	-428.389493	331.260472	1202.690710	-149.841785	329.902376	1176.349013	-403.616732	350.594885	1137.425206	-187.310434	212.989353	1262.270918	-228.092427	203.666818	1278.383830	-314.112954	235.436165	1079.101278	-135.381750	225.961789	1153.091701	-464.096478	253.043063	971.929713	-116.042303	280.370360	886.887611	-108.218107	260.775584	800.848293	-112.211737	317.137205	888.907652	-116.305043	282.841575	652.673830	-135.152114	264.328380	645.175947	-240.896595	223.597924	565.258195	-100.804829	218.663414	477.102915	-109.046433	174.142287	404.073633	-109.340291	248.030483	470.092950	-133.803079	143.050955	271.412466	-114.223315	159.651444	291.771073	-193.318216	68.455190	264.714884	-155.422409	334.216127	129.904768	-160.481809	234.586108	149.067710	-91.110224	332.447727	1062.115617	-486.332541	414.372697	1038.086244	-485.030728	434.240904	1064.599373	-463.566933	476.179119	970.899753	-487.147385	575.959566	863.569422	-459.484351	562.673303	849.716082	-349.110022	472.945680	806.515111	-479.653571	411.314168	746.063610	-466.831654	325.629230	722.992473	-465.904751	428.831565	719.174757	-446.120475	222.131716	647.736604	-456.725282	257.475607	651.472712	-380.733971	156.175380	677.019184	-417.743276	289.418269	415.235107	-390.361343	217.160263	489.741237	-464.443132	-219.480502	911.437643	-273.897360	-53.298669	79.497457	-475.036332	-53.372485	79.173181	-77.439765	
1002	5.0100	770.735535	1273.101541	-210.917218	737.880164	1303.942195	-491.256309	744.544194	1363.225651	-356.191837	685.261198	1210.739643	-351.927436	594.986488	1123.200810	-27.594590	697.087947	925.925057	-99.930213	523.489518	1098.236282	-584.237680	680.634184	917.856579	-490.763267	163.651643	1229.995601	-270.413170	288.604431	1244.515826	-426.800743	333.374742	1203.189743	-148.346222	328.754851	1178.768236	-401.922591	352.114699	1138.510915	-185.952008	213.909634	1263.495250	-224.721923	203.477122	1280.107493	-310.462032	236.888841	1080.375102	-133.403448	224.909484	1155.837233	-461.575038	252.854262	974.108705	-114.387114	278.572734	888.618499	-106.192903	257.613162	802.939684	-110.548017	315.436659	890.124007	-113.695226	277.897097	653.936888	-133.165913	259.973702	646.266894	-238.894949	218.350814	566.754466	-98.484421	212.907244	478.663687	-106.663151	168.037241	405.841289	-106.752513	242.180350	471.448997	-131.548708	136.534603	273.161555	-111.582404	152.716657	293.365736	-190.704983	61.447070	268.049519	-151.721465	323.625867	126.644502	-161.493299	225.557564	147.843613	-90.498595	332.093482	1066.383075	-483.952543	414.448468	1043.374866	-483.355040	433.788037	1070.391404	-462.108330	476.733838	977.009683	-486.109449	579.074686	871.583930	-459.431696	566.395003	857.396246	-348.442287	477.365747	812.481789	-479.196036	416.846000	751.018551	-466.331257	331.518588	726.555568	-465.301234	434.850653	724.256885	-445.748874	229.011249	649.243982	-455.973541	264.759070	653.207260	-379.928370	162.524973	676.989753	-416.844452	301.079961	417.983106	-390.834805	227.394701	491.269577	-464.635811	-219.520476	911.434728	-273.950258	-53.298301	79.385740	-474.956408	-53.361184	79.162297	-77.426622	
1003	5.0150	771.363377	1273.070806	-213.717806	736.954744	1303.719034	-493.096607	743.909526	1363.235827	-358.233758	682.672149	1211.491850	-352.762602	595.604598	1123.525714	-28.611322	697.209388	925.498705	-100.330199	522.456346	1097.642799	-584.560351	680.643366	918.304085	-490.758663	163.795791	1231.874697	-266.946025	286.885167	1247.066987	-424.360728	335.338580	1204.183779	-146.446799	327.472329	1181.332097	-400.377138	353.482064	1139.594379	-184.725313	214.607304	1265.351674	-221.350444	202.776505	1282.339162	-306.903643	238.303275	1081.876472	-131.562225	223.597529	1158.879324	-459.118301	252.931872	976.462640	-112.976593	277.378425	890.630292	-104.662636	255.285496	805.369374	-109.249728	314.028130	891.303900	-112.056049	273.607974	655.580665	-131.077893	256.633006	648.062187	-237.271934	214.247873	568.612220	-96.446518	208.052321	480.613729	-104.688977	162.825978	408.101755	-104.362930	237.260838	473.037721	-129.787639	130.115918	275.170161	-109.027971	145.972643	295.864445	-188.097175	54.728483	272.207442	-148.710142	313.063101	124.294632	-161.866491	216.118469	147.245134	-89.816227	331.450439	1070.712247	-481.399780	414.117648	1048.733212	-481.648163	433.261726	1075.803366	-460.241862	476.135259	983.069139	-485.666231	581.115177	879.395613	-459.704060	569.370680	864.977111	-347.803606	481.253021	817.745058	-478.525299	422.041618	755.052464	-465.477512	337.061170	729.069817	-464.620385	440.405275	728.548621	-445.105694	235.566150	649.871508	-455.140610	271.441228	654.143778	-379.491167	168.615076	676.163939	-415.842029	312.717577	420.161179	-391.513068	237.333479	492.086266	-464.630260	-219.554832	911.408093	-274.001329	-53.307267	79.477868	-475.021961	-53.380457	79.175340	-77.444726	
1004	5.0200	770.963227	1273.145087	-215.974714	735.976185	1303.322560	-494.856123	743.216246	1363.207144	-360.180701	681.382299	1211.883463	-354.423630	596.068824	1123.711958	-29.804082	697.299617	925.133702	-100.660682	521.442876	1097.176924	-584.722124	681.016890	918.845519	-490.070994	164.013746	1234.016878	-263.614729	285.347521	1249.943952	-422.206042	337.012146	1205.392346	-144.857742	326.083498	1184.044071	-398.759447	354.725631	1141.033614	-183.621800	214.830429	1266.784298	-218.684880	202.402201	1284.873970	-303.529030	239.462803	1083.678293	-129.914779	222.228765	1162.384653	-456.741821	253.377373	978.938285	-111.909706	276.816082	892.834288	-103.559856	253.825214	807.809811	-108.354205	313.445497	893.144807	-110.642776	270.774702	657.443938	-129.328053	254.059878	650.454725	-235.986839	211.289441	570.811323	-94.700440	203.937307	482.870980	-103.347628	158.167623	410.735090	-102.383449	232.327218	475.177079	-128.741565	123.578666	277.912546	-106.833802	140.178132	298.535592	-186.061145	47.853795	277.689820	-145.807689	302.450263	122.586456	-162.100061	206.586275	147.496793	-89.237564	330.460502	1075.117651	-478.910975	413.677499	1053.710662	-479.973656	432.401521	1081.410178	-458.648672	477.332918	988.472358	-482.212741	584.406646	887.022364	-457.581385	571.561377	872.286072	-346.943038	484.476019	822.353715	-477.683311	426.537081	758.393532	-464.656103	342.093152	730.750358	-463.902593	445.435490	732.601662	-444.151587	241.762016	649.777930	-454.315425	277.521661	654.483911	-379.212208	174.171558	674.436360	-414.812638	324.085470	421.749475	-392.331091	247.313281	492.376673	-464.706295	-219.602573	911.427236	-274.091584	-53.318867	79.462837	-475.035547	-53.377265	79.187862	-77.448275	
